<?xml version="1.0" encoding="utf-8"?>
<!-- Generator: Adobe Illustrator 23.0.6, SVG Export Plug-In . SVG Version: 6.00 Build 0)  -->
<svg version="1.1" id="图层_1" xmlns="http://www.w3.org/2000/svg" xmlns:xlink="http://www.w3.org/1999/xlink" x="0px" y="0px"
	 viewBox="0 0 45.1 44.2" style="enable-background:new 0 0 45.1 44.2;" xml:space="preserve">
<style type="text/css">
	.st0{fill:none;stroke:#9191A9;stroke-miterlimit:10;}
</style>
<path class="st0" d="M20.2,20h-3.8c-0.6,0-1-0.4-1-1v-3.8c0-0.6,0.4-1,1-1h3.8c0.6,0,1,0.4,1,1V19C21.2,19.6,20.8,20,20.2,20z"/>
<path class="st0" d="M20.2,28.9h-3.8c-0.6,0-1-0.4-1-1v-3.8c0-0.6,0.4-1,1-1h3.8c0.6,0,1,0.4,1,1v3.8C21.2,28.4,20.8,28.9,20.2,28.9
	z"/>
<path class="st0" d="M28.6,28.9h-3.8c-0.6,0-1-0.4-1-1v-3.8c0-0.6,0.4-1,1-1h3.8c0.6,0,1,0.4,1,1v3.8C29.6,28.4,29.1,28.9,28.6,28.9
	z"/>
<path class="st0" d="M26.7,20.2L26.7,20.2c-1.7,0-3.1-1.4-3.1-3.1v0c0-1.7,1.4-3.1,3.1-3.1h0c1.7,0,3.1,1.4,3.1,3.1v0
	C29.7,18.8,28.4,20.2,26.7,20.2z"/>
</svg>
